<svg xmlns="http://www.w3.org/2000/svg" fill-rule="evenodd" clip-rule="evenodd" image-rendering="optimizeQuality" shape-rendering="geometricPrecision" text-rendering="geometricPrecision" viewBox="0 0 1338 472">
    <path fill="#fefefe" d="M-.5-.5h1241c31.8 75.3 64.1 150.3 97 225v7c-32 79.8-63.7 159.8-95 240H-.5V-.5Z" opacity="1"/>
    <path fill="#010101" d="M53.5 53.5c213-.3 426 0 639 1 25.4 58.3 51 116.5 77 174.5-25.8 63.1-51.5 126.3-77 189.5h-639v-365Z"/>
    <path fill="#51b848" d="M1203.5 417.5c-150.8.3-301.5 0-452-1 25.2-62.2 50.6-124.4 76-186.5-25.4-58.8-51-117.5-77-176 151.3-.5 302.7-.7 454-.5 25 58.2 49.6 116.5 74 175-24.4 63.3-49.4 126.3-75 189Z"/>
    <path fill="#fdfefd" d="M869.5 132.5c36-.2 72 0 108 .5 37.4 4.3 54.5 25.2 51.5 62.5a39.5 39.5 0 0 1-22.5 29.5 49.9 49.9 0 0 1 30 47.5c-1.3 29.7-16 49.2-44 58.5-4.6 1-9.3 1.6-14 2-36.3.5-72.7.7-109 .5v-201Z"/>
    <path fill="#fcfcfc" d="M133.5 134.5c37-.2 74 0 111 .5 40.3 7.8 55.5 31.6 45.5 71.5a38.6 38.6 0 0 1-20.5 20.5c20.9 9 30.9 25 30 48a58.4 58.4 0 0 1-37 56c-9.5 2.6-19.2 4.3-29 5-33.3.5-66.7.7-100 .5v-202ZM367.5 170.5c-1 13.8-1.3 27.8-1 42h98v35c-32.5-.3-64.8 0-97 1v51h111v37h-153v-202h148v36h-106Z"/>
    <path fill="#fdfdfd" d="M670.5 330.5v5h-46c-2.2-7-3.7-14.4-4.5-22 0-14-.7-28-2-42a19 19 0 0 0-17.5-13.5c-4-.5-8-.7-12-.5a507 507 0 0 0-45-1v79c-13.5 1-27.2 1.3-41 1v-202c38-.2 76 0 114 .5a55.3 55.3 0 0 1 50.5 45.5c2.7 17-1 32.3-11 46-5.1 5.3-11 9.6-17.5 13a36 36 0 0 1 22.5 29c.3 16.4 1 32.7 2 49 0 6 2.5 10.3 7.5 13Z"/>
    <path fill="#fdfefd" d="M1058.5 273.5h38c-.3 2 0 3.6 1 5 .3 14.1 7 23.6 20 28.5 27.3 2 39.8-11 37.5-38.5a50.3 50.3 0 0 0-6-12 59.2 59.2 0 0 0-11.5-6.5c-8.8-2.3-17.8-3.5-27-3.5v-28a59 59 0 0 0 29-4.5c7-5.5 10.8-12.8 11-22-2.8-21.4-14.8-29.4-36-24a26.6 26.6 0 0 0-15.5 20.5 50 50 0 0 0-.5 10h-36v-7c2-30.7 18-49.2 48-55.5a81.7 81.7 0 0 1 59 11c20 17.4 25.2 38.6 15.5 63.5a53.2 53.2 0 0 1-18.5 18 45 45 0 0 1 28.5 34c4.7 33.1-7.8 57-37.5 71.5a86.5 86.5 0 0 1-77-8 63.4 63.4 0 0 1-22-52.5Z"/>
    <path fill="#52b849" d="M910.5 167.5c21-.4 42 0 63 1.5 13.6 4.3 18.4 13.5 14.5 27.5a23.4 23.4 0 0 1-21.5 14.5c-18.7.5-37.3.7-56 .5v-44Z"/>
    <path d="M174.5 169.5c19-.2 38 0 57 .5 16.9 1.6 23.7 10.8 20.5 27.5-4.5 10-12.4 15-23.5 15h-54v-43Z"/>
    <path fill="#020202" d="M543.5 169.5c20.3-.2 40.7 0 61 .5 16.9 4.9 23.7 16 20.5 33.5-2 9.2-7.5 15-16.5 17.5-21.6 1.5-43.3 2-65 1.5v-53Z"/>
    <path fill="#a9dba4" d="M1062.5 191.5v7h36c-12.2 1-24.5 1.3-37 1-.3-2.9 0-5.6 1-8Z"/>
    <path fill="#4d4d4d" d="M367.5 170.5v41c32.8-.3 65.5 0 98 1h-99c-.3-14.2 0-28.2 1-42Z"/>
    <path fill="#555" d="M174.5 169.5v43h54c-18.2 1-36.5 1.3-55 1-.3-14.8 0-29.5 1-44Z"/>
    <path fill="#51b848" d="M910.5 245.5c19.7-.2 39.3 0 59 .5 19.6 3 27.4 14 23.5 33.5a24.6 24.6 0 0 1-20.5 18.5c-20.7.5-41.3.7-62 .5v-53Z"/>
    <path d="M174.5 247.5c21.4-.5 42.7 0 64 1.5 15.5 4.4 21.6 14.6 18.5 30.5a24.4 24.4 0 0 1-21.5 20.5c-20.3.5-40.7.7-61 .5v-53Z"/>
    <path fill="#bebebe" d="M464.5 212.5h1v36h-98c32.2-1 64.5-1.3 97-1v-35Z"/>
    <path fill="#4f4f4f" d="M588.5 257.5h-44c.3 26.2 0 52.2-1 78v-79a507 507 0 0 1 45 1Z"/>
    <path fill="#cdeacb" d="M1058.5 273.5c12.8-1 25.8-1.3 39-1v6c-1-1.4-1.3-3-1-5h-38Z"/>
    <path fill="#7e7e7e" d="M670.5 330.5c1 1.8 1.3 3.8 1 6-15.8.3-31.5 0-47-1h46v-5Z"/>
    <path fill="#7bc974" d="M751.5 416.5c150.5 1 301.2 1.3 452 1a25658 25658 0 0 1-453 0c.1-.6.5-1 1-1Z"/>
</svg>
