<svg xmlns="http://www.w3.org/2000/svg" fill-rule="evenodd" clip-rule="evenodd" image-rendering="optimizeQuality" shape-rendering="geometricPrecision" text-rendering="geometricPrecision" viewBox="0 0 1338 472">
    <path fill="#fefefe" d="M-.5-.5h1241c31.8 75.3 64.1 150.3 97 225v7c-32 79.8-63.7 159.8-95 240H-.5V-.5Z" opacity="1"/>
    <path fill="#010101" d="M53.5 53.5c213-.3 426 0 639 1 25.4 58.3 51 116.5 77 174.5-25.8 63.1-51.5 126.3-77 189.5h-639v-365Z"/>
    <path fill="#bed630" d="M1203.5 417.5c-151 .7-301.7 0-452-2 25.2-61.9 50.5-123.7 76-185.5-25.4-58.8-51-117.5-77-176 151.3-.5 302.7-.7 454-.5 24.7 58.4 49.7 116.8 75 175l-76 189Z"/>
    <path fill="#010100" d="M1040.5 198.5c-14.4.3-28.8 0-43-1a40.3 40.3 0 0 0-37-33.5 46.6 46.6 0 0 0-48.5 26.5c-5.7 14-8.5 28.4-8.5 43.5a85.8 85.8 0 0 0 16.5 54.5 43.6 43.6 0 0 0 41.5 13.5 40 40 0 0 0 31.5-21.5c2-5 3.8-10 5.5-15h41v3c-10.8 46.4-40.1 70.1-88 71-42.5-1.3-70.7-22-84.5-62a152 152 0 0 1 3-96 84.6 84.6 0 0 1 61.5-52.5c24.8-4.7 48.5-1.4 71 10a77.6 77.6 0 0 1 38 59.5Z"/>
    <path fill="#fcfcfc" d="M133.5 134.5c37-.2 74 0 111 .5 40.3 7.8 55.5 31.6 45.5 71.5a38.6 38.6 0 0 1-20.5 20.5c20.9 9 30.9 25 30 48a58.4 58.4 0 0 1-37 56c-9.5 2.6-19.2 4.3-29 5-33.3.5-66.7.7-100 .5v-202ZM367.5 170.5c-1 13.8-1.3 27.8-1 42h98v35c-32.5-.3-64.8 0-97 1v51h111v37h-153v-202h148v36h-106Z"/>
    <path fill="#fdfdfd" d="M670.5 330.5v5h-46c-2.2-7-3.7-14.4-4.5-22 0-14-.7-28-2-42a19 19 0 0 0-17.5-13.5c-4-.5-8-.7-12-.5a507 507 0 0 0-45-1v79c-13.5 1-27.2 1.3-41 1v-202c38-.2 76 0 114 .5a55.3 55.3 0 0 1 50.5 45.5c2.7 17-1 32.3-11 46-5.1 5.3-11 9.6-17.5 13a36 36 0 0 1 22.5 29c.3 16.4 1 32.7 2 49 0 6 2.5 10.3 7.5 13Z"/>
    <path fill="#010100" d="M1058.5 273.5h38c-.3 2.6 0 4.9 1 7 3.8 22.3 16.8 30.8 39 25.5a29.7 29.7 0 0 0 18.5-24.5c2.8-15.5-3-26-17.5-31.5a156 156 0 0 0-27-3.5v-28a59 59 0 0 0 29-4.5c8-5.9 11.7-13.9 11-24-4-20-16-27.3-36-22a28.8 28.8 0 0 0-16 30.5h-36v-7c2-30.6 18-49.1 48-55.5 21-3.6 40.8.1 59 11 20 17.4 25.1 38.6 15.5 63.5a53.2 53.2 0 0 1-18.5 18 45 45 0 0 1 28.5 34c4.4 37.5-11.1 62.3-46.5 74.5a95.8 95.8 0 0 1-56-4 59.4 59.4 0 0 1-34-59.5Z"/>
    <path d="M174.5 169.5c19-.2 38 0 57 .5 16.9 1.6 23.7 10.8 20.5 27.5-4.5 10-12.4 15-23.5 15h-54v-43Z"/>
    <path fill="#020202" d="M543.5 169.5c20.3-.2 40.7 0 61 .5 16.9 4.9 23.7 16 20.5 33.5-2 9.2-7.5 15-16.5 17.5-21.6 1.5-43.3 2-65 1.5v-53Z"/>
    <path fill="#8fa124" d="M997.5 197.5c14.3 1 28.6 1.3 43 1-7 .7-14.2 1-21.5 1a112 112 0 0 1-21.5-2Z"/>
    <path fill="#5d6917" d="M1062.5 191.5v7h36c-12.2 1-24.5 1.3-37 1-.3-2.9 0-5.6 1-8Z"/>
    <path fill="#4d4d4d" d="M367.5 170.5v41c32.8-.3 65.5 0 98 1h-99c-.3-14.2 0-28.2 1-42Z"/>
    <path fill="#555" d="M174.5 169.5v43h54c-18.2 1-36.5 1.3-55 1-.3-14.8 0-29.5 1-44Z"/>
    <path d="M174.5 247.5c21.4-.5 42.7 0 64 1.5 15.5 4.4 21.6 14.6 18.5 30.5a24.4 24.4 0 0 1-21.5 20.5c-20.3.5-40.7.7-61 .5v-53Z"/>
    <path fill="#bebebe" d="M464.5 212.5h1v36h-98c32.2-1 64.5-1.3 97-1v-35Z"/>
    <path fill="#4f4f4f" d="M588.5 257.5h-44c.3 26.2 0 52.2-1 78v-79a507 507 0 0 1 45 1Z"/>
    <path fill="#31370c" d="M998.5 265.5c13.8-1 27.8-1.3 42-1 .3 1.6 0 3-1 4v-3h-41Z"/>
    <path fill="#343b0d" d="M1058.5 273.5c12.8-1 25.8-1.3 39-1v8c-1-2.1-1.3-4.4-1-7h-38Z"/>
    <path fill="#7e7e7e" d="M670.5 330.5c1 1.8 1.3 3.8 1 6-15.8.3-31.5 0-47-1h46v-5Z"/>
    <path fill="#cfe163" d="M751.5 415.5c150.3 2 301 2.7 452 2a51287 51287 0 0 1-453 1c-.2-1.3.1-2.3 1-3Z"/>
</svg>
