<svg xmlns="http://www.w3.org/2000/svg" fill-rule="evenodd" clip-rule="evenodd" image-rendering="optimizeQuality" shape-rendering="geometricPrecision" text-rendering="geometricPrecision" viewBox="0 0 1338 472">
    <path fill="#fefefe" d="M-.5-.5h1241c31.8 75.3 64.1 150.3 97 225v7c-32 79.8-63.7 159.8-95 240H-.5V-.5Z" opacity="1"/>
    <path fill="#010101" d="M53.5 53.5c213-.3 426 0 639 1 25.4 58.3 51 116.5 77 174.5-25.8 63.1-51.5 126.3-77 189.5h-639v-365Z"/>
    <path fill="#fef100" d="M1203.5 417.5c-151 .7-301.7 0-452-2l76-186c-25.4-58.4-51-116.8-77-175 151.3-1.3 302.7-1.3 454 0a40100 40100 0 0 0 75 173.5c-25 63.4-50.3 126.6-76 189.5Z"/>
    <path fill="#010100" d="M870.5 132.5c32.7-.2 65.3 0 98 .5 37 4.6 59.8 25.1 68.5 61.5 6.8 31.9 4.2 62.9-8 93a73.1 73.1 0 0 1-64.5 46h-94v-201Z"/>
    <path fill="#fcfcfc" d="M133.5 134.5c37-.2 74 0 111 .5 40.3 7.8 55.5 31.6 45.5 71.5a38.6 38.6 0 0 1-20.5 20.5c20.9 9 30.9 25 30 48a58.4 58.4 0 0 1-37 56c-9.5 2.6-19.2 4.3-29 5-33.3.5-66.7.7-100 .5v-202ZM367.5 170.5c-1 13.8-1.3 27.8-1 42h98v35c-32.5-.3-64.8 0-97 1v51h111v37h-153v-202h148v36h-106Z"/>
    <path fill="#fdfdfd" d="M670.5 330.5v5h-46c-2.2-7-3.7-14.4-4.5-22 0-14-.7-28-2-42a19 19 0 0 0-17.5-13.5c-4-.5-8-.7-12-.5a507 507 0 0 0-45-1v79c-13.5 1-27.2 1.3-41 1v-202c38-.2 76 0 114 .5a55.3 55.3 0 0 1 50.5 45.5c2.7 17-1 32.3-11 46-5.1 5.3-11 9.6-17.5 13a36 36 0 0 1 22.5 29c.3 16.4 1 32.7 2 49 0 6 2.5 10.3 7.5 13Z"/>
    <path d="M1124.5 135.5h32v198h-38c.3-45.5 0-90.8-1-136-15.5-1-31.2-1.3-47-1v-27c13.4.9 26-1.6 38-7.5 9.8-6.1 15.1-15 16-26.5Z"/>
    <path fill="#3f3c00" d="M1124.5 135.5c10.8-1 21.8-1.3 33-1v199h-1v-198h-32Z"/>
    <path fill="#fdf000" d="M911.5 167.5c18.4-.4 36.7.1 55 1.5 17.1 7 27 19.9 29.5 38.5 2.6 19.5 1.6 38.9-3 58a46.4 46.4 0 0 1-34.5 33.5c-15.7.5-31.3.7-47 .5v-132Z"/>
    <path d="M174.5 169.5c19-.2 38 0 57 .5 16.9 1.6 23.7 10.8 20.5 27.5-4.5 10-12.4 15-23.5 15h-54v-43Z"/>
    <path fill="#020202" d="M543.5 169.5c20.3-.2 40.7 0 61 .5 16.9 4.9 23.7 16 20.5 33.5-2 9.2-7.5 15-16.5 17.5-21.6 1.5-43.3 2-65 1.5v-53Z"/>
    <path fill="#4d4d4d" d="M367.5 170.5v41c32.8-.3 65.5 0 98 1h-99c-.3-14.2 0-28.2 1-42Z"/>
    <path fill="#555" d="M174.5 169.5v43h54c-18.2 1-36.5 1.3-55 1-.3-14.8 0-29.5 1-44Z"/>
    <path d="M174.5 247.5c21.4-.5 42.7 0 64 1.5 15.5 4.4 21.6 14.6 18.5 30.5a24.4 24.4 0 0 1-21.5 20.5c-20.3.5-40.7.7-61 .5v-53Z"/>
    <path fill="#bebebe" d="M464.5 212.5h1v36h-98c32.2-1 64.5-1.3 97-1v-35Z"/>
    <path fill="#4f4f4f" d="M588.5 257.5h-44c.3 26.2 0 52.2-1 78v-79a507 507 0 0 1 45 1Z"/>
    <path fill="#645f00" d="M870.5 132.5v201h94c-31.5 1-63.2 1.3-95 1-.3-67.5 0-134.8 1-202Z"/>
    <path fill="#625e00" d="M1117.5 197.5c1 45.2 1.3 90.5 1 136h39c-13.2 1-26.5 1.3-40 1v-137Z"/>
    <path fill="#7e7e7e" d="M670.5 330.5c1 1.8 1.3 3.8 1 6-15.8.3-31.5 0-47-1h46v-5Z"/>
    <path fill="#fff53f" d="M751.5 415.5c150.3 2 301 2.7 452 2a51287 51287 0 0 1-453 1c-.2-1.3.1-2.3 1-3Z"/>
</svg>
