<svg xmlns="http://www.w3.org/2000/svg" fill-rule="evenodd" clip-rule="evenodd" image-rendering="optimizeQuality" shape-rendering="geometricPrecision" text-rendering="geometricPrecision" viewBox="0 0 1338 472">
    <path fill="#fefefe" d="M-.5-.5h1241c31.8 75.3 64.1 150.3 97 225v7c-32 79.8-63.7 159.8-95 240H-.5V-.5Z" opacity="1"/>
    <path fill="#010101" d="M53.5 53.5c213-.3 426 0 639 1 25.4 58.3 51 116.5 77 174.5-25.8 63.1-51.5 126.3-77 189.5h-639v-365Z"/>
    <path fill="#fcb813" d="M1203.5 417.5c-151 .7-301.7 0-452-2 25.2-61.9 50.5-123.7 76-185.5-25.4-58.8-51-117.5-77-176 151.3-.5 302.7-.7 454-.5 24.7 58.4 49.7 116.8 75 175l-76 189Z"/>
    <path d="M1016.5 210.5v35c-32.5-.3-64.8 0-97 1-1 17.2-1.3 34.5-1 52h112v35h-153v-201h148v36h-107v42h98Z"/>
    <path fill="#fcfcfc" d="M133.5 134.5c37-.2 74 0 111 .5 40.3 7.8 55.5 31.6 45.5 71.5a38.6 38.6 0 0 1-20.5 20.5c20.9 9 30.9 25 30 48a58.4 58.4 0 0 1-37 56c-9.5 2.6-19.2 4.3-29 5-33.3.5-66.7.7-100 .5v-202ZM367.5 170.5c-1 13.8-1.3 27.8-1 42h98v35c-32.5-.3-64.8 0-97 1v51h111v37h-153v-202h148v36h-106Z"/>
    <path fill="#fdfdfd" d="M670.5 330.5v5h-46c-2.2-7-3.7-14.4-4.5-22 0-14-.7-28-2-42a19 19 0 0 0-17.5-13.5c-4-.5-8-.7-12-.5a507 507 0 0 0-45-1v79c-13.5 1-27.2 1.3-41 1v-202c38-.2 76 0 114 .5a55.3 55.3 0 0 1 50.5 45.5c2.7 17-1 32.3-11 46-5.1 5.3-11 9.6-17.5 13a36 36 0 0 1 22.5 29c.3 16.4 1 32.7 2 49 0 6 2.5 10.3 7.5 13Z"/>
    <path fill="#010100" d="M1101.5 297.5c-.5 0-.9.4-1 1 28.7 1 57.3 1.3 86 1v34h-136c.4-28 11.4-50.8 33-68.5 15.2-11 30.2-22.4 45-34 8-6.7 13.8-14.9 17.5-24.5 3.2-29.8-10-42-39.5-36.5-7 3.4-11.5 9-13.5 16.5a433 433 0 0 0-2.5 18h-37v-9c2.4-34.2 20.4-54.4 54-60.5 18-1.7 35 1.6 51 10 24.3 17.6 32.8 41.1 25.5 70.5a73 73 0 0 1-25.5 37.5l-44 31a50.1 50.1 0 0 0-13 13.5Z"/>
    <path d="M174.5 169.5c19-.2 38 0 57 .5 16.9 1.6 23.7 10.8 20.5 27.5-4.5 10-12.4 15-23.5 15h-54v-43Z"/>
    <path fill="#020202" d="M543.5 169.5c20.3-.2 40.7 0 61 .5 16.9 4.9 23.7 16 20.5 33.5-2 9.2-7.5 15-16.5 17.5-21.6 1.5-43.3 2-65 1.5v-53Z"/>
    <path fill="#423004" d="M1053.5 195.5v9h37c-12.5 1-25.2 1.3-38 1-.3-3.5 0-6.9 1-10Z"/>
    <path fill="#4d4d4d" d="M367.5 170.5v41c32.8-.3 65.5 0 98 1h-99c-.3-14.2 0-28.2 1-42Z"/>
    <path fill="#555" d="M174.5 169.5v43h54c-18.2 1-36.5 1.3-55 1-.3-14.8 0-29.5 1-44Z"/>
    <path fill="#4b3706" d="M1016.5 210.5a323 323 0 0 1 1 36h-98c32.2-1 64.5-1.3 97-1v-35Z"/>
    <path d="M174.5 247.5c21.4-.5 42.7 0 64 1.5 15.5 4.4 21.6 14.6 18.5 30.5a24.4 24.4 0 0 1-21.5 20.5c-20.3.5-40.7.7-61 .5v-53Z"/>
    <path fill="#bebebe" d="M464.5 212.5h1v36h-98c32.2-1 64.5-1.3 97-1v-35Z"/>
    <path fill="#4f4f4f" d="M588.5 257.5h-44c.3 26.2 0 52.2-1 78v-79a507 507 0 0 1 45 1Z"/>
    <path fill="#ad7e0c" d="M919.5 246.5v51c37.2-.3 74.2 0 111 1h-112c-.3-17.5 0-34.8 1-52Z"/>
    <path fill="#7d5b08" d="m1101.5 297.5 85 2c-28.7.3-57.3 0-86-1 .1-.6.5-1 1-1Z"/>
    <path fill="#7e7e7e" d="M670.5 330.5c1 1.8 1.3 3.8 1 6-15.8.3-31.5 0-47-1h46v-5Z"/>
    <path fill="#fdca4e" d="M751.5 415.5c150.3 2 301 2.7 452 2a51287 51287 0 0 1-453 1c-.2-1.3.1-2.3 1-3Z"/>
</svg>
